<svg width="525" height="525" viewBox="0 0 525 525" fill="none" xmlns="http://www.w3.org/2000/svg">
<g filter="url(#filter0_di_92_12)">
<rect x="3" y="3" width="513" height="513" fill="url(#paint0_linear_92_12)"/>
<path d="M149.919 153.702C149.138 154.309 148.878 158.298 149.051 170.872L149.312 187.262L190.068 187.435C212.528 187.609 231.259 187.348 231.779 187.002C232.299 186.655 233.947 184.487 235.595 182.145C240.884 174.341 248.429 166.276 256.407 159.946C260.656 156.477 264.211 153.529 264.211 153.355C264.211 152.662 151.046 153.095 149.919 153.702Z" fill="#5F170C"/>
<path d="M148.384 151.729L148.549 151.6L148.733 151.501C149.072 151.319 149.389 151.254 149.443 151.243C149.446 151.243 149.448 151.242 149.449 151.242C149.56 151.219 149.659 151.204 149.727 151.195C149.866 151.177 150.017 151.164 150.158 151.153C150.448 151.131 150.832 151.111 151.286 151.093C152.201 151.055 153.494 151.02 155.1 150.985C158.315 150.916 162.839 150.852 168.226 150.795C179.001 150.679 193.259 150.59 207.479 150.541C221.699 150.492 235.887 150.484 246.523 150.532C251.839 150.555 256.277 150.593 259.39 150.647C260.943 150.673 262.184 150.704 263.045 150.741C263.469 150.758 263.836 150.779 264.113 150.804C264.239 150.815 264.418 150.834 264.594 150.867C264.663 150.88 264.861 150.919 265.09 151.007C265.19 151.045 265.456 151.153 265.741 151.374C265.98 151.56 266.711 152.207 266.711 153.355C266.711 153.841 266.569 154.203 266.509 154.344C266.436 154.517 266.357 154.648 266.31 154.722C266.216 154.87 266.124 154.982 266.078 155.036C265.978 155.153 265.876 155.257 265.805 155.327C265.653 155.477 265.458 155.654 265.249 155.84C264.823 156.219 264.224 156.73 263.51 157.33C262.076 158.534 260.114 160.147 257.988 161.883L257.974 161.894L257.961 161.904C250.168 168.087 242.802 175.968 237.664 183.548L237.652 183.566L237.639 183.584C236.802 184.774 235.953 185.936 235.238 186.856C234.881 187.314 234.541 187.734 234.242 188.075C234.011 188.338 233.609 188.786 233.166 189.082C232.863 189.283 232.584 189.373 232.497 189.401C232.37 189.441 232.259 189.466 232.185 189.482C232.037 189.513 231.891 189.533 231.775 189.547C231.535 189.576 231.243 189.6 230.923 189.621C230.276 189.664 229.381 189.703 228.282 189.739C226.076 189.81 222.965 189.87 219.18 189.913C211.607 190 201.295 190.022 190.053 189.935C190.052 189.935 190.051 189.935 190.049 189.935L149.301 189.762L146.851 189.751L146.812 187.301L146.552 170.912L146.552 170.907C146.465 164.621 146.485 160.404 146.631 157.667C146.703 156.309 146.811 155.217 146.978 154.382C147.062 153.964 147.176 153.528 147.349 153.121C147.511 152.74 147.811 152.174 148.384 151.729Z" stroke="white" stroke-opacity="0.5" stroke-width="5"/>
<path d="M310.345 154.309C275.918 160.553 247.908 184.66 236.809 217.699C231.866 232.615 231.953 230.447 231.519 312.828C231.172 371.708 231.346 389.225 232.126 390.179C232.993 391.22 236.462 391.48 251.117 391.48C263.951 391.48 269.328 391.22 270.108 390.439C270.888 389.659 271.149 371.708 271.149 315.256C271.149 232.961 271.062 234.349 276.785 222.816C283.115 210.155 294.649 199.055 307.136 193.852C313.12 191.337 326.474 188.129 327.341 188.909C328.382 190.037 325.173 197.841 321.444 203.131C315.027 212.323 303.754 220.994 288.752 228.539C281.555 232.181 281.034 232.615 283.115 233.048C287.711 234.089 306.269 232.875 313.033 231.054C333.064 225.937 350.408 210.675 358.386 191.164C363.329 179.11 365.757 157.518 362.548 154.396C361.421 153.182 358.126 153.008 338.961 153.095C324.653 153.095 314.42 153.616 310.345 154.309Z" fill="#5F170C"/>
<path d="M309.898 151.849L309.912 151.847L338.953 150.595C348.507 150.552 354.205 150.572 357.655 150.762C359.369 150.855 360.672 150.997 361.67 151.239C362.687 151.485 363.607 151.886 364.337 152.649C365.213 153.527 365.656 154.735 365.917 155.764C366.202 156.89 366.365 158.21 366.443 159.625C366.599 162.464 366.429 165.982 366.008 169.711C365.168 177.151 363.285 185.806 360.699 192.112C352.43 212.332 334.477 228.151 313.668 233.472C310.026 234.449 303.493 235.217 297.426 235.619C294.356 235.822 291.335 235.936 288.774 235.932C286.3 235.928 284.035 235.816 282.585 235.491C282.301 235.432 281.957 235.351 281.631 235.236C281.388 235.15 280.706 234.901 280.181 234.268C279.868 233.891 279.607 233.37 279.558 232.735C279.511 232.124 279.677 231.619 279.851 231.272C280.158 230.66 280.633 230.253 280.889 230.047C281.47 229.581 282.329 229.077 283.347 228.523C284.412 227.944 285.825 227.218 287.623 226.308L287.629 226.305C302.445 218.855 313.31 210.415 319.394 201.7L319.401 201.69C321.146 199.214 322.795 196.107 323.871 193.504C324.171 192.778 324.416 192.117 324.603 191.541C323.283 191.766 321.595 192.126 319.747 192.574C315.599 193.582 310.915 194.976 308.105 196.157L308.098 196.16C296.205 201.115 285.105 211.768 279.023 223.93C278.95 224.077 278.879 224.221 278.808 224.362C277.474 227.048 276.579 228.85 275.893 231.242C275.17 233.763 274.658 237.035 274.316 242.652C273.648 253.616 273.648 272.921 273.649 311.811C273.649 312.943 273.649 314.091 273.649 315.256C273.649 343.481 273.584 362.098 273.421 373.759C273.339 379.585 273.233 383.704 273.097 386.426C273.029 387.781 272.951 388.836 272.859 389.6C272.813 389.976 272.757 390.343 272.68 390.665C272.642 390.825 272.587 391.029 272.501 391.242C272.437 391.404 272.261 391.822 271.876 392.207C271.359 392.724 270.737 392.963 270.381 393.081C269.961 393.22 269.495 393.32 269.023 393.398C268.072 393.554 266.818 393.666 265.266 393.749C262.147 393.915 257.535 393.98 251.117 393.98C243.806 393.98 239.187 393.916 236.278 393.714C234.833 393.613 233.682 393.471 232.786 393.245C231.923 393.027 230.926 392.644 230.205 391.779L230.198 391.771L230.191 391.762C229.91 391.418 229.771 391.072 229.709 390.905C229.635 390.705 229.584 390.511 229.548 390.351C229.476 390.03 229.422 389.663 229.378 389.282C229.289 388.509 229.217 387.448 229.156 386.082C229.033 383.338 228.949 379.181 228.9 373.246C228.802 361.368 228.846 342.252 229.019 312.813C229.026 311.507 229.033 310.222 229.039 308.958C229.242 270.4 229.343 251.155 229.977 239.824C230.306 233.944 230.783 230.098 231.515 226.738C232.175 223.712 233.035 221.126 234.098 217.929C234.208 217.597 234.321 217.259 234.436 216.913L234.439 216.903C245.831 182.994 274.582 158.254 309.898 151.849ZM283.983 233.978C283.983 233.979 283.993 233.97 284.01 233.953C283.991 233.969 283.982 233.977 283.983 233.978ZM325.037 189.627C325.036 189.627 325.036 189.644 325.04 189.674C325.04 189.669 325.04 189.665 325.04 189.662C325.039 189.638 325.038 189.626 325.037 189.627Z" stroke="white" stroke-opacity="0.5" stroke-width="5"/>
</g>
<defs>
<filter id="filter0_di_92_12" x="0" y="0" width="525" height="525" filterUnits="userSpaceOnUse" color-interpolation-filters="sRGB">
<feFlood flood-opacity="0" result="BackgroundImageFix"/>
<feColorMatrix in="SourceAlpha" type="matrix" values="0 0 0 0 0 0 0 0 0 0 0 0 0 0 0 0 0 0 127 0" result="hardAlpha"/>
<feOffset dx="3" dy="3"/>
<feGaussianBlur stdDeviation="3"/>
<feComposite in2="hardAlpha" operator="out"/>
<feColorMatrix type="matrix" values="0 0 0 0 0 0 0 0 0 0 0 0 0 0 0 0 0 0 0.1 0"/>
<feBlend mode="normal" in2="BackgroundImageFix" result="effect1_dropShadow_92_12"/>
<feBlend mode="normal" in="SourceGraphic" in2="effect1_dropShadow_92_12" result="shape"/>
<feColorMatrix in="SourceAlpha" type="matrix" values="0 0 0 0 0 0 0 0 0 0 0 0 0 0 0 0 0 0 127 0" result="hardAlpha"/>
<feOffset dx="1" dy="1"/>
<feGaussianBlur stdDeviation="1.5"/>
<feComposite in2="hardAlpha" operator="arithmetic" k2="-1" k3="1"/>
<feColorMatrix type="matrix" values="0 0 0 0 1 0 0 0 0 1 0 0 0 0 1 0 0 0 0.15 0"/>
<feBlend mode="normal" in2="shape" result="effect2_innerShadow_92_12"/>
</filter>
<linearGradient id="paint0_linear_92_12" x1="3" y1="516" x2="516" y2="3" gradientUnits="userSpaceOnUse">
<stop offset="0.502389" stop-color="#E47B5A"/>
<stop offset="1" stop-color="#F5987B"/>
</linearGradient>
</defs>
</svg>
